<svg width="21" height="21" viewBox="0 0 21 21" fill="none" xmlns="http://www.w3.org/2000/svg">
<path fill-rule="evenodd" clip-rule="evenodd" d="M6.53514 0.0610932C7.62093 0.0111078 7.96713 0 10.733 0C13.4988 0 13.845 0.0120335 14.9299 0.0610932C16.0148 0.110153 16.7553 0.28325 17.4032 0.534103C18.0818 0.790509 18.6973 1.19132 19.2064 1.70968C19.7248 2.21787 20.1247 2.8325 20.3802 3.51193C20.6319 4.15989 20.8041 4.90042 20.8541 5.98343C20.9041 7.07108 20.9152 7.41727 20.9152 10.1822C20.9152 12.9481 20.9032 13.2943 20.8541 14.38C20.805 15.4631 20.6319 16.2036 20.3802 16.8515C20.1247 17.5311 19.7241 18.1467 19.2064 18.6556C18.6973 19.174 18.0818 19.5739 17.4032 19.8294C16.7553 20.0812 16.0148 20.2533 14.9318 20.3033C13.845 20.3533 13.4988 20.3644 10.733 20.3644C7.96713 20.3644 7.62093 20.3524 6.53514 20.3033C5.45212 20.2542 4.7116 20.0812 4.06364 19.8294C3.38414 19.5739 2.76848 19.1733 2.25954 18.6556C1.74152 18.1472 1.34066 17.5318 1.08488 16.8525C0.834032 16.2045 0.66186 15.464 0.611874 14.381C0.561889 13.2933 0.550781 12.9471 0.550781 10.1822C0.550781 7.41635 0.562815 7.07015 0.611874 5.98528C0.660934 4.90042 0.834032 4.15989 1.08488 3.51193C1.34103 2.83258 1.74221 2.21723 2.26047 1.70876C2.76869 1.19086 3.38372 0.789994 4.06272 0.534103C4.71067 0.28325 5.4512 0.111079 6.53421 0.0610932H6.53514ZM14.8475 1.89389C13.7738 1.84483 13.4516 1.83465 10.733 1.83465C8.01433 1.83465 7.69221 1.84483 6.61845 1.89389C5.62522 1.93925 5.08649 2.10494 4.72733 2.24471C4.25247 2.42984 3.91276 2.64922 3.55638 3.0056C3.21856 3.33426 2.95858 3.73435 2.79549 4.17655C2.65572 4.53571 2.49003 5.07444 2.44467 6.06767C2.39561 7.14143 2.38543 7.46355 2.38543 10.1822C2.38543 12.9008 2.39561 13.223 2.44467 14.2967C2.49003 15.29 2.65572 15.8287 2.79549 16.1878C2.95841 16.6294 3.21852 17.0302 3.55638 17.3588C3.88499 17.6967 4.2858 17.9568 4.72733 18.1197C5.08649 18.2595 5.62522 18.4252 6.61845 18.4705C7.69221 18.5196 8.01341 18.5298 10.733 18.5298C13.4526 18.5298 13.7738 18.5196 14.8475 18.4705C15.8407 18.4252 16.3795 18.2595 16.7386 18.1197C17.2135 17.9346 17.5532 17.7152 17.9096 17.3588C18.2474 17.0302 18.5076 16.6294 18.6705 16.1878C18.8102 15.8287 18.9759 15.29 19.0213 14.2967C19.0704 13.223 19.0805 12.9008 19.0805 10.1822C19.0805 7.46355 19.0704 7.14143 19.0213 6.06767C18.9759 5.07444 18.8102 4.53571 18.6705 4.17655C18.4853 3.70169 18.266 3.36198 17.9096 3.0056C17.5809 2.6678 17.1808 2.40782 16.7386 2.24471C16.3795 2.10494 15.8407 1.93925 14.8475 1.89389ZM9.43244 13.3211C10.1588 13.6234 10.9675 13.6643 11.7206 13.4365C12.4737 13.2088 13.1243 12.7267 13.5614 12.0726C13.9985 11.4185 14.195 10.6329 14.1172 9.84999C14.0395 9.0671 13.6923 8.33549 13.1351 7.78013C12.7798 7.42512 12.3503 7.15329 11.8774 6.9842C11.4045 6.81512 10.9 6.75298 10.4002 6.80228C9.90041 6.85158 9.41777 7.01107 8.98702 7.26929C8.55626 7.5275 8.18812 7.87801 7.90909 8.29558C7.63006 8.71315 7.44708 9.18739 7.37333 9.68416C7.29958 10.1809 7.3369 10.6879 7.48258 11.1685C7.62827 11.6491 7.87871 12.0915 8.21587 12.4637C8.55303 12.8359 8.96852 13.1287 9.43244 13.3211ZM7.03222 6.48143C7.51821 5.99544 8.09516 5.60993 8.73014 5.34692C9.36512 5.0839 10.0457 4.94853 10.733 4.94853C11.4203 4.94853 12.1008 5.0839 12.7358 5.34692C13.3708 5.60993 13.9478 5.99544 14.4338 6.48143C14.9197 6.96743 15.3053 7.54438 15.5683 8.17936C15.8313 8.81434 15.9667 9.49491 15.9667 10.1822C15.9667 10.8695 15.8313 11.5501 15.5683 12.185C15.3053 12.82 14.9197 13.397 14.4338 13.883C13.4522 14.8645 12.121 15.4159 10.733 15.4159C9.34492 15.4159 8.01372 14.8645 7.03222 13.883C6.05071 12.9015 5.49931 11.5703 5.49931 10.1822C5.49931 8.79414 6.05071 7.46294 7.03222 6.48143ZM17.1274 5.72795C17.2478 5.61434 17.3442 5.47773 17.4109 5.32619C17.4776 5.17466 17.5132 5.01128 17.5156 4.84574C17.5181 4.68019 17.4872 4.51585 17.425 4.36243C17.3627 4.20902 17.2704 4.06965 17.1533 3.95258C17.0362 3.83551 16.8969 3.74312 16.7434 3.68088C16.59 3.61864 16.4257 3.58782 16.2601 3.59023C16.0946 3.59264 15.9312 3.62825 15.7797 3.69493C15.6281 3.76162 15.4915 3.85803 15.3779 3.97846C15.157 4.21268 15.036 4.52379 15.0407 4.84574C15.0454 5.16769 15.1754 5.47514 15.4031 5.70281C15.6307 5.93049 15.9382 6.06047 16.2601 6.06517C16.5821 6.06986 16.8932 5.94889 17.1274 5.72795Z" fill="white" fill-opacity="0.15"/>
</svg>
