<svg width="44" height="29" viewBox="0 0 44 29" fill="none" xmlns="http://www.w3.org/2000/svg">
<path fill-rule="evenodd" clip-rule="evenodd" d="M3.66535 0.233154C1.64103 0.233154 0 1.83602 0 3.81327V25.2939C0 27.2712 1.64103 28.874 3.66535 28.874H40.3189C42.3432 28.874 43.9842 27.2712 43.9842 25.2939V3.81327C43.9842 1.83602 42.3432 0.233154 40.3189 0.233154H3.66535ZM24.0638 22.8034L19.7079 18.0818L20.9297 17.0441L17.8486 13.7234L19.0704 12.6857L15.9894 9.36503L20.8234 5.16229L22.3639 6.77075L25.02 4.53966L26.5605 6.09623L27.5698 5.21418C27.4636 5.1623 27.344 5.09745 27.2245 5.0326C27.105 4.96775 26.9854 4.90286 26.8792 4.85098C25.3387 4.22835 23.6919 3.81327 21.939 3.81327C15.83 3.81327 10.8367 8.63863 10.8367 14.5536C10.8367 20.4686 15.83 25.2939 21.9921 25.2939C24.0107 25.2939 25.8699 24.7751 27.4635 23.893C27.9947 23.5817 28.4727 23.2705 28.9508 22.9592L26.7198 20.5204L24.0638 22.8034ZM18.008 9.52069L20.3984 12.0631L23.0545 9.78012L20.6641 7.23772L18.008 9.52069ZM24.9669 14.1385L22.5764 11.5961L19.9204 13.8791L22.3108 16.4734L24.9669 14.1385ZM24.4356 16.0064L26.8261 18.5488L24.17 20.8836L21.7796 18.3413L24.4356 16.0064ZM24.6481 10.1952L22.8951 8.27543L24.8606 6.56321L26.6667 8.48298L24.6481 10.1952ZM28.4728 12.3225L26.6667 10.4027L24.7013 12.1669L26.5074 14.0347L28.4728 12.3225ZM28.3666 14.4498L30.1727 16.3696L28.2072 18.1337L26.4011 16.1621L28.3666 14.4498ZM30.279 10.0395L28.9509 11.181L30.1727 12.4782L31.4476 11.3367L30.279 10.0395ZM31.8195 16.2658L30.6508 14.9687L31.9257 13.8272L33.1475 15.1243L31.8195 16.2658ZM27.2511 7.39338L28.4728 8.69052L29.7477 7.54903L28.5791 6.25189L27.2511 7.39338ZM29.9602 21.9732L28.1541 20.0535L30.1196 18.3413L31.9257 20.261L29.9602 21.9732Z" fill="#137ABE"/>
</svg>
