<svg width="22" height="18" viewBox="0 0 22 18" fill="none" xmlns="http://www.w3.org/2000/svg">
<path d="M21.3021 2.64441C20.5292 2.98691 19.6989 3.21832 18.826 3.32292C19.7266 2.784 20.4005 1.93579 20.7217 0.936581C19.8755 1.4392 18.9494 1.79299 17.9836 1.98257C17.3342 1.28913 16.4739 0.829507 15.5365 0.675059C14.599 0.520612 13.6368 0.679981 12.7993 1.12843C11.9617 1.57687 11.2956 2.2893 10.9044 3.1551C10.5132 4.0209 10.4187 4.99164 10.6358 5.9166C8.92117 5.83051 7.24383 5.38486 5.71261 4.60857C4.18139 3.83227 2.83051 2.74268 1.74764 1.41052C1.37738 2.04922 1.16448 2.78974 1.16448 3.5784C1.16406 4.28837 1.3389 4.98747 1.67348 5.61367C2.00805 6.23986 2.49202 6.77379 3.08243 7.16809C2.39771 7.1463 1.72808 6.96128 1.1293 6.62843V6.68397C1.12923 7.67974 1.47368 8.64486 2.10419 9.41558C2.7347 10.1863 3.61244 10.7151 4.58847 10.9124C3.95327 11.0843 3.28732 11.1096 2.6409 10.9864C2.91628 11.8432 3.45269 12.5924 4.17505 13.1292C4.8974 13.666 5.76953 13.9635 6.66935 13.98C5.14186 15.1791 3.25543 15.8295 1.31351 15.8267C0.969517 15.8268 0.625817 15.8067 0.28418 15.7665C2.25534 17.0339 4.54991 17.7065 6.89335 17.7039C14.8262 17.7039 19.1629 11.1336 19.1629 5.43526C19.1629 5.25013 19.1583 5.06315 19.1499 4.87802C19.9935 4.26799 20.7216 3.51258 21.3002 2.64719L21.3021 2.64441Z" fill="white" fill-opacity="0.15"/>
</svg>
